<mxfile host="app.diagrams.net" modified="2023-07-12T13:45:46.744Z" agent="Mozilla/5.0 (Windows NT 10.0; Win64; x64) AppleWebKit/537.36 (KHTML, like Gecko) Chrome/114.0.0.0 Safari/537.36" etag="JranWyJBhdR1FZjPFGtv" version="21.6.2" type="device">
  <diagram name="Page-1" id="eGCiEWch_KhJKkUznlSv">
    <mxGraphModel dx="1131" dy="1580" grid="1" gridSize="10" guides="1" tooltips="1" connect="1" arrows="1" fold="1" page="1" pageScale="1" pageWidth="850" pageHeight="1100" math="0" shadow="0">
      <root>
        <mxCell id="0" />
        <mxCell id="1" parent="0" />
        <mxCell id="gR1asfEhjM7dh0WRGzhv-7" style="edgeStyle=orthogonalEdgeStyle;rounded=0;orthogonalLoop=1;jettySize=auto;html=1;entryX=0.5;entryY=0;entryDx=0;entryDy=0;shape=flexArrow;startArrow=block;startFill=0;endArrow=none;endFill=0;" edge="1" parent="1" target="gR1asfEhjM7dh0WRGzhv-3">
          <mxGeometry relative="1" as="geometry">
            <mxPoint x="417" y="250" as="sourcePoint" />
          </mxGeometry>
        </mxCell>
        <mxCell id="gR1asfEhjM7dh0WRGzhv-1" value="&lt;b&gt;&lt;font style=&quot;font-size: 14px;&quot;&gt;USB Host&lt;br&gt;&lt;/font&gt;&lt;/b&gt;" style="shape=mxgraph.signs.tech.usb;html=1;pointerEvents=1;fillColor=#000000;strokeColor=none;verticalLabelPosition=bottom;verticalAlign=top;align=center;" vertex="1" parent="1">
          <mxGeometry x="404" y="160" width="26" height="68" as="geometry" />
        </mxCell>
        <mxCell id="gR1asfEhjM7dh0WRGzhv-8" value="USB_4" style="edgeStyle=orthogonalEdgeStyle;rounded=0;orthogonalLoop=1;jettySize=auto;html=1;exitX=1;exitY=0.5;exitDx=0;exitDy=0;shape=flexArrow;startArrow=block;startFill=0;endArrow=none;endFill=0;labelBackgroundColor=none;" edge="1" parent="1" source="gR1asfEhjM7dh0WRGzhv-3">
          <mxGeometry x="-0.8796" y="25" relative="1" as="geometry">
            <mxPoint x="650" y="250" as="targetPoint" />
            <Array as="points">
              <mxPoint x="650" y="395" />
              <mxPoint x="650" y="250" />
            </Array>
            <mxPoint as="offset" />
          </mxGeometry>
        </mxCell>
        <mxCell id="gR1asfEhjM7dh0WRGzhv-13" value="USB_3" style="edgeStyle=orthogonalEdgeStyle;rounded=0;orthogonalLoop=1;jettySize=auto;exitX=0.5;exitY=1;exitDx=0;exitDy=0;shape=flexArrow;startArrow=block;startFill=0;endArrow=none;endFill=0;labelBackgroundColor=none;" edge="1" parent="1" source="gR1asfEhjM7dh0WRGzhv-3" target="gR1asfEhjM7dh0WRGzhv-11">
          <mxGeometry x="-0.7778" y="33" relative="1" as="geometry">
            <mxPoint as="offset" />
          </mxGeometry>
        </mxCell>
        <mxCell id="gR1asfEhjM7dh0WRGzhv-3" value="&lt;font style=&quot;font-size: 14px;&quot;&gt;FE1.1S&lt;br style=&quot;&quot;&gt;USB Hub&lt;/font&gt;" style="text;html=1;strokeColor=default;fillColor=none;align=center;verticalAlign=middle;whiteSpace=wrap;rounded=0;fontSize=16;fontStyle=1" vertex="1" parent="1">
          <mxGeometry x="372.25" y="370" width="89.5" height="50" as="geometry" />
        </mxCell>
        <mxCell id="gR1asfEhjM7dh0WRGzhv-5" value="&lt;b&gt;&lt;font style=&quot;font-size: 14px;&quot;&gt;External USB Port&lt;/font&gt;&lt;/b&gt;" style="shape=image;html=1;verticalAlign=top;verticalLabelPosition=bottom;labelBackgroundColor=#ffffff;imageAspect=0;aspect=fixed;image=https://cdn0.iconfinder.com/data/icons/icocentre-free-icons/119/f-usbdrive_128-128.png" vertex="1" parent="1">
          <mxGeometry x="617" y="160" width="68" height="68" as="geometry" />
        </mxCell>
        <mxCell id="gR1asfEhjM7dh0WRGzhv-12" value="USB_1" style="edgeStyle=orthogonalEdgeStyle;rounded=0;orthogonalLoop=1;jettySize=auto;html=1;exitX=1;exitY=0.5;exitDx=0;exitDy=0;startArrow=none;startFill=0;shape=flexArrow;labelBackgroundColor=none;" edge="1" parent="1" source="gR1asfEhjM7dh0WRGzhv-9" target="gR1asfEhjM7dh0WRGzhv-3">
          <mxGeometry x="0.6597" y="25" relative="1" as="geometry">
            <Array as="points">
              <mxPoint x="330" y="395" />
              <mxPoint x="330" y="395" />
            </Array>
            <mxPoint as="offset" />
          </mxGeometry>
        </mxCell>
        <mxCell id="gR1asfEhjM7dh0WRGzhv-15" value="TXD/RXD" style="edgeStyle=orthogonalEdgeStyle;rounded=0;orthogonalLoop=1;jettySize=auto;html=1;exitX=0.5;exitY=1;exitDx=0;exitDy=0;entryX=0;entryY=0.5;entryDx=0;entryDy=0;startArrow=classic;startFill=1;shape=flexArrow;" edge="1" parent="1" source="gR1asfEhjM7dh0WRGzhv-9" target="gR1asfEhjM7dh0WRGzhv-10">
          <mxGeometry x="-0.9526" y="39" relative="1" as="geometry">
            <mxPoint as="offset" />
          </mxGeometry>
        </mxCell>
        <mxCell id="gR1asfEhjM7dh0WRGzhv-18" value="IO16/IO17" style="edgeLabel;html=1;align=center;verticalAlign=middle;resizable=0;points=[];" vertex="1" connectable="0" parent="gR1asfEhjM7dh0WRGzhv-15">
          <mxGeometry x="0.7344" y="3" relative="1" as="geometry">
            <mxPoint x="28" y="-22" as="offset" />
          </mxGeometry>
        </mxCell>
        <mxCell id="gR1asfEhjM7dh0WRGzhv-9" value="&lt;font style=&quot;font-size: 14px;&quot;&gt;CH9329&lt;br&gt;HID Emulator&lt;/font&gt;" style="text;html=1;strokeColor=default;fillColor=none;align=center;verticalAlign=middle;whiteSpace=wrap;rounded=0;fontSize=16;fontStyle=1" vertex="1" parent="1">
          <mxGeometry x="140" y="370" width="101.5" height="50" as="geometry" />
        </mxCell>
        <mxCell id="gR1asfEhjM7dh0WRGzhv-21" value="SDA/SCL" style="edgeStyle=orthogonalEdgeStyle;rounded=0;orthogonalLoop=1;jettySize=auto;html=1;shape=flexArrow;" edge="1" parent="1" source="gR1asfEhjM7dh0WRGzhv-10">
          <mxGeometry x="0.7688" y="43" relative="1" as="geometry">
            <mxPoint x="417.0050000000001" y="790.0000000000002" as="targetPoint" />
            <mxPoint as="offset" />
          </mxGeometry>
        </mxCell>
        <mxCell id="gR1asfEhjM7dh0WRGzhv-22" value="IO21/IO22" style="edgeLabel;html=1;align=center;verticalAlign=middle;resizable=0;points=[];" vertex="1" connectable="0" parent="gR1asfEhjM7dh0WRGzhv-21">
          <mxGeometry x="-0.4677" y="-8" relative="1" as="geometry">
            <mxPoint x="-29" y="-14" as="offset" />
          </mxGeometry>
        </mxCell>
        <mxCell id="gR1asfEhjM7dh0WRGzhv-26" style="edgeStyle=orthogonalEdgeStyle;rounded=0;orthogonalLoop=1;jettySize=auto;html=1;startArrow=classic;startFill=1;shape=flexArrow;" edge="1" parent="1" source="gR1asfEhjM7dh0WRGzhv-10" target="gR1asfEhjM7dh0WRGzhv-23">
          <mxGeometry relative="1" as="geometry" />
        </mxCell>
        <mxCell id="gR1asfEhjM7dh0WRGzhv-27" value="SENSOR_VP/SENSOR_VN" style="edgeLabel;html=1;align=center;verticalAlign=middle;resizable=0;points=[];" vertex="1" connectable="0" parent="gR1asfEhjM7dh0WRGzhv-26">
          <mxGeometry x="-0.1909" y="-1" relative="1" as="geometry">
            <mxPoint x="-46" y="24" as="offset" />
          </mxGeometry>
        </mxCell>
        <mxCell id="gR1asfEhjM7dh0WRGzhv-10" value="&lt;font style=&quot;font-size: 14px;&quot;&gt;ESP32-WROOM&lt;br&gt;MCU Board&lt;/font&gt;" style="text;html=1;strokeColor=default;fillColor=none;align=center;verticalAlign=middle;whiteSpace=wrap;rounded=0;fontSize=16;fontStyle=1" vertex="1" parent="1">
          <mxGeometry x="358.13" y="650" width="117.75" height="50" as="geometry" />
        </mxCell>
        <mxCell id="gR1asfEhjM7dh0WRGzhv-14" value="RXD/TXD" style="edgeStyle=orthogonalEdgeStyle;rounded=0;orthogonalLoop=1;jettySize=auto;html=1;exitX=0.5;exitY=1;exitDx=0;exitDy=0;entryX=0.5;entryY=0;entryDx=0;entryDy=0;startArrow=classic;startFill=1;shape=flexArrow;" edge="1" parent="1" source="gR1asfEhjM7dh0WRGzhv-11" target="gR1asfEhjM7dh0WRGzhv-10">
          <mxGeometry x="-0.7778" y="43" relative="1" as="geometry">
            <mxPoint as="offset" />
          </mxGeometry>
        </mxCell>
        <mxCell id="gR1asfEhjM7dh0WRGzhv-16" value="TXD0_IO1/RXD0_IO3" style="edgeLabel;html=1;align=center;verticalAlign=middle;resizable=0;points=[];" vertex="1" connectable="0" parent="gR1asfEhjM7dh0WRGzhv-14">
          <mxGeometry x="-0.1931" y="-2" relative="1" as="geometry">
            <mxPoint x="75" y="44" as="offset" />
          </mxGeometry>
        </mxCell>
        <mxCell id="gR1asfEhjM7dh0WRGzhv-11" value="&lt;font style=&quot;font-size: 14px;&quot;&gt;CH340C&lt;br&gt;USB to Serial&lt;/font&gt;" style="text;html=1;strokeColor=default;fillColor=none;align=center;verticalAlign=middle;whiteSpace=wrap;rounded=0;fontSize=16;fontStyle=1" vertex="1" parent="1">
          <mxGeometry x="367.01" y="510" width="100" height="50" as="geometry" />
        </mxCell>
        <mxCell id="gR1asfEhjM7dh0WRGzhv-20" value="&lt;font style=&quot;font-size: 14px;&quot;&gt;&lt;b&gt;OLED Display&lt;/b&gt;&lt;/font&gt;" style="shape=image;html=1;verticalAlign=bottom;verticalLabelPosition=top;labelBackgroundColor=#ffffff;imageAspect=0;image=https://cdn4.iconfinder.com/data/icons/essential-app-1/16/mobile-phone-smart-screen-128.png;direction=south;labelPosition=center;align=center;recursiveResize=0;resizeWidth=1;resizeHeight=1;autosize=0;" vertex="1" parent="1">
          <mxGeometry x="369.02" y="810" width="95.98" height="60" as="geometry" />
        </mxCell>
        <mxCell id="gR1asfEhjM7dh0WRGzhv-23" value="&lt;font style=&quot;font-size: 14px;&quot;&gt;TP5400&lt;br&gt;Power Management&lt;/font&gt;" style="text;html=1;strokeColor=default;fillColor=none;align=center;verticalAlign=middle;whiteSpace=wrap;rounded=0;fontSize=16;fontStyle=1" vertex="1" parent="1">
          <mxGeometry x="580" y="510" width="142" height="50" as="geometry" />
        </mxCell>
      </root>
    </mxGraphModel>
  </diagram>
</mxfile>
